<?xml version="1.0" encoding="UTF-8"?>
<svg id="Layer_1" xmlns="http://www.w3.org/2000/svg" xmlns:xlink="http://www.w3.org/1999/xlink" version="1.1" viewBox="0 0 534 615.52">
  <!-- Generator: Adobe Illustrator 30.6.0, SVG Export Plug-In . SVG Version: 2.1.4 Build 109)  -->
  <defs>
    <style>
      .st0, .st1, .st2, .st3, .st4, .st5, .st6, .st7, .st8, .st9 {
        fill: none;
      }

      .st1 {
        opacity: .48;
      }

      .st1, .st2, .st4, .st7, .st8, .st9 {
        stroke-linecap: round;
      }

      .st1, .st2, .st5, .st6, .st10, .st7, .st8, .st11, .st12, .st13, .st9 {
        isolation: isolate;
      }

      .st1, .st2, .st7, .st8, .st9 {
        stroke: #7fb5c8;
      }

      .st1, .st6, .st8 {
        stroke-width: 2.5px;
      }

      .st2 {
        opacity: .82;
        stroke-width: 3px;
      }

      .st14 {
        fill: #233d4d;
      }

      .st3 {
        stroke: #fe7f2d;
        stroke-width: 10px;
      }

      .st4 {
        stroke: #eaecf0;
        stroke-width: 3.5px;
      }

      .st5 {
        opacity: .4;
        stroke: #ffb066;
        stroke-width: 1.2px;
      }

      .st6 {
        opacity: .5;
        stroke: #c45a0e;
      }

      .st15 {
        fill: url(#radial-gradient);
      }

      .st16, .st11, .st12 {
        fill: #eaecf0;
      }

      .st7 {
        opacity: .33;
      }

      .st7, .st9 {
        stroke-width: 2px;
      }

      .st8 {
        opacity: .63;
      }

      .st11, .st13 {
        font-family: CourierNewPS-BoldMT, 'Courier New';
        font-size: 66px;
        font-weight: 700;
      }

      .st17 {
        fill: url(#radial-gradient1);
      }

      .st12 {
        opacity: .7;
      }

      .st13 {
        fill: #fe7f2d;
      }

      .st18 {
        clip-path: url(#clippath);
      }

      .st9 {
        opacity: .2;
      }
    </style>
    <clipPath id="clippath">
      <polygon class="st0" points="267 5.76 529 155.76 529 459.76 267 609.76 5 459.76 5 155.76 267 5.76"/>
    </clipPath>
    <radialGradient id="radial-gradient" cx="-130.7" cy="608.04" fx="-130.7" fy="608.04" r=".6" gradientTransform="translate(8692 39224.4951) scale(64 -64)" gradientUnits="userSpaceOnUse">
      <stop offset="0" stop-color="#ffb066"/>
      <stop offset=".6" stop-color="#fe7f2d"/>
      <stop offset="1" stop-color="#c45a0e"/>
    </radialGradient>
    <radialGradient id="radial-gradient1" cx="-130.73" cy="608.09" fx="-130.73" fy="608.09" r=".45" gradientTransform="translate(8692 39224.4951) scale(64 -64)" gradientUnits="userSpaceOnUse">
      <stop offset="0" stop-color="#fff" stop-opacity=".35"/>
      <stop offset="1" stop-color="#fff" stop-opacity="0"/>
    </radialGradient>
  </defs>
  <polygon class="st14" points="267 5.76 529 155.76 529 459.76 267 609.76 5 459.76 5 155.76 267 5.76"/>
  <g class="st18">
    <g>
      <circle class="st16" cx="267" cy="152.76" r="7"/>
      <path class="st9" d="M119,322.76c43.91-81.74,145.76-112.41,227.5-68.5,29.06,15.61,52.89,39.44,68.5,68.5"/>
      <path class="st7" d="M132,311.76c36.11-74.56,125.83-105.73,200.38-69.62,30.38,14.71,54.9,39.24,69.62,69.62"/>
      <path class="st1" d="M147,299.76c30.37-66.27,108.72-95.38,174.99-65.01,28.76,13.18,51.83,36.25,65.01,65.01"/>
      <path class="st8" d="M165,287.76c26.86-56.33,94.3-80.23,150.63-53.37,23.38,11.15,42.22,29.99,53.37,53.37"/>
      <path class="st2" d="M185,273.76c25.38-45.29,82.67-61.42,127.96-36.04,15.1,8.47,27.58,20.94,36.04,36.04"/>
      <line class="st4" x1="267" y1="152.76" x2="332" y2="292.76"/>
      <circle class="st15" cx="335" cy="319.76" r="32"/>
      <circle class="st17" cx="335" cy="319.76" r="32"/>
      <circle class="st6" cx="335" cy="319.76" r="32"/>
      <circle class="st5" cx="335" cy="319.76" r="22"/>
      <circle class="st12" cx="326" cy="295.76" r="5"/>
    </g>
  </g>
  <polygon class="st3" points="267 5.76 529 155.76 529 459.76 267 609.76 5 459.76 5 155.76 267 5.76"/>
  <g class="st10">
    <text class="st11" transform="translate(167.98 492.76)"><tspan x="0" y="0">sync</tspan></text>
    <text class="st13" transform="translate(326.41 492.76)"><tspan x="0" y="0">R</tspan></text>
  </g>
</svg>